#tb 0: 1/25
#media_type 0: video
#codec_id 0: rawvideo
#dimensions 0: 352x288
#sar 0: 0/1
0,          0,          0,        1,   608256, 0xc5ba4285
0,          1,          1,        1,   608256, 0x3066fd50
0,          2,          2,        1,   608256, 0xdb8e68a8
